<?xml version="1.0" encoding="UTF-8" standalone="no"?>
<!-- Generator: Adobe Illustrator 23.0.1, SVG Export Plug-In . SVG Version: 6.00 Build 0)  -->

<svg
   version="1.1"
   x="0px"
   y="0px"
   viewBox="0 0 513.55 368.86"
   style="enable-background:new 0 0 513.55 368.86;"
   xml:space="preserve"
   id="svg25"
   sodipodi:docname="logo_royal_fassin.svg"
   inkscape:version="1.4.2 (f4327f4, 2025-05-13)"
   xmlns:inkscape="http://www.inkscape.org/namespaces/inkscape"
   xmlns:sodipodi="http://sodipodi.sourceforge.net/DTD/sodipodi-0.dtd"
   xmlns="http://www.w3.org/2000/svg"
   xmlns:svg="http://www.w3.org/2000/svg"><defs
   id="defs25" /><sodipodi:namedview
   id="namedview25"
   pagecolor="#ffffff"
   bordercolor="#666666"
   borderopacity="1.0"
   inkscape:showpageshadow="2"
   inkscape:pageopacity="0.0"
   inkscape:pagecheckerboard="0"
   inkscape:deskcolor="#d1d1d1"
   inkscape:zoom="1.1183105"
   inkscape:cx="195.83112"
   inkscape:cy="164.98101"
   inkscape:window-width="1920"
   inkscape:window-height="1027"
   inkscape:window-x="-8"
   inkscape:window-y="-8"
   inkscape:window-maximized="1"
   inkscape:current-layer="svg25" />
<style
   type="text/css"
   id="style1">
	.st0{fill:#3A98CC;}
	.st1{fill:#FFFFFF;}
	.st2{fill:#F4C000;}
</style>

<g
   id="Plaatsing_logo">
</g>
<path
   class="st2"
   d="m 257.15773,257.98301 c 68.87287,0 124.70688,6.48301 124.70688,14.49572 0,2.29455 -4.7712,4.47983 -13.00244,6.41017 -20.35956,4.7712 -62.64481,8.04913 -111.66802,8.04913 -32.37862,0 -61.77069,-1.45686 -83.95133,-3.78783 -24.98508,-2.65876 -40.75555,-6.44659 -40.75555,-10.67147 -0.0364,-8.01271 55.79759,-14.49572 124.67046,-14.49572 M 77.60022,176.03486 114.75005,277.06783 c 3.53288,8.15839 10.23441,14.56856 18.57491,17.59153 9.94305,3.60572 22.32632,5.099 33.50769,6.37375 24.14739,2.80445 56.05254,4.33415 89.88802,4.37057 33.83549,0 65.74064,-1.56612 89.88802,-4.37057 11.14495,-1.31117 23.52823,-2.80445 33.50769,-6.37375 8.37693,-3.02297 15.07846,-9.43314 18.57492,-17.59153 l 37.18625,-101.03297 c 8.12197,-1.09265 14.42288,-8.08555 14.42288,-16.53532 0,-9.79736 -8.48619,-17.66438 -18.50208,-16.57174 -7.57565,0.80127 -13.73086,6.84723 -14.71424,14.38646 -0.58275,4.62551 0.72843,8.95966 3.27792,12.31043 -15.80688,39.51722 -70.22046,48.40404 -60.20457,-35.80224 7.13859,-2.36739 12.27401,-9.06893 12.27401,-16.97237 0,-10.56221 -9.14177,-18.975552 -19.92251,-17.810067 -8.37692,0.910535 -15.07846,7.794177 -15.80689,16.207527 -0.5099,5.791 1.74823,11.03568 5.6089,14.67782 -22.47201,91.52699 -65.48568,56.34391 -72.1508,-23.85602 6.04595,-4.22488 9.97947,-11.254209 9.97947,-19.194075 0,-12.929598 -10.45295,-23.38254 -23.34612,-23.418961 -12.89318,0.03642 -23.34612,10.525785 -23.34612,23.418961 0,7.939866 3.96993,14.932775 9.97946,19.194075 -6.66511,80.19993 -49.67879,115.34658 -72.15079,23.85602 3.82424,-3.60572 6.08237,-8.88682 5.60889,-14.67782 -0.72843,-8.41335 -7.42996,-15.296992 -15.80689,-16.207527 -10.78073,-1.201906 -19.95893,7.247857 -19.95893,17.810067 0,7.90344 5.13542,14.6414 12.27402,16.97237 10.01588,84.20628 -44.39769,75.31946 -60.20458,35.80224 2.549498,-3.35077 3.860669,-7.68492 3.277926,-12.31043 -0.983378,-7.53923 -7.138595,-13.58519 -14.714246,-14.38646 -10.015886,-1.05622 -18.502072,6.77438 -18.502072,16.57174 -0.07284,8.48619 6.228059,15.44267 14.350032,16.53532"
   id="path14"
   style="fill:#f4c000;stroke-width:3.64214" /></svg>
